<svg width="16" height="24" viewBox="0 0 8 12" fill="none" xmlns="http://www.w3.org/2000/svg">
<path fill-rule="evenodd" clip-rule="evenodd" d="M8 0H8.15489e-07C0.222445 1.12499 1.92844 2 4 2C6.07156 2 7.77756 1.12499 8 0Z" fill="black"/>
<path fill-rule="evenodd" clip-rule="evenodd" d="M0 12H8C7.77756 10.875 6.07156 10 4 10C1.92844 10 0.222444 10.875 0 12Z" fill="black"/>
<circle cx="4" cy="6" r="2.5" transform="rotate(180 4 6)" fill="#F5F5F5" stroke="black"/>
<path d="M3.69808 6.28C3.69808 6.108 3.72008 5.98 3.76408 5.896C3.80808 5.81 3.88508 5.744 3.99508 5.698C4.06508 5.668 4.11708 5.642 4.15108 5.62C4.18508 5.596 4.20708 5.571 4.21708 5.545C4.22908 5.519 4.23508 5.488 4.23508 5.452C4.23508 5.398 4.21708 5.355 4.18108 5.323C4.14708 5.289 4.09508 5.272 4.02508 5.272C3.95308 5.272 3.89608 5.293 3.85408 5.335C3.81208 5.375 3.78608 5.437 3.77608 5.521L3.17608 5.497C3.18808 5.367 3.22708 5.251 3.29308 5.149C3.36108 5.047 3.45608 4.967 3.57808 4.909C3.70008 4.851 3.84908 4.822 4.02508 4.822C4.20708 4.822 4.35708 4.85 4.47508 4.906C4.59308 4.962 4.68008 5.038 4.73608 5.134C4.79408 5.228 4.82308 5.334 4.82308 5.452C4.82308 5.542 4.81108 5.616 4.78708 5.674C4.76508 5.732 4.72708 5.784 4.67308 5.83C4.62108 5.874 4.54908 5.92 4.45708 5.968C4.38908 6.004 4.34008 6.043 4.31008 6.085C4.28208 6.127 4.26808 6.192 4.26808 6.28H3.69808ZM3.68608 7V6.46H4.27408V7H3.68608Z" fill="black"/>
</svg>
